<svg width="522" height="21" viewBox="0 0 522 21" fill="none" xmlns="http://www.w3.org/2000/svg">
<g clip-path="url(#clip0_1_217)">
<path d="M37.5927 8.48942L31.9726 7.62002L29.4266 2.27945C29.2403 1.90685 28.7435 1.90685 28.5572 2.27945L26.0111 7.65107L20.4221 8.48942C20.0184 8.55152 19.8632 9.07937 20.1737 9.35882L24.2412 13.5505L23.2787 19.419C23.2166 19.8226 23.6202 20.1642 23.9928 19.9158L29.054 17.1523L34.084 19.9158C34.4256 20.1021 34.8603 19.7916 34.7671 19.419L33.8046 13.5505L37.8721 9.35882C38.1205 9.07937 37.9963 8.55152 37.5927 8.48942Z" fill="#52503B"/>
</g>
<g clip-path="url(#clip1_1_217)">
<path d="M77.5927 8.48942L71.9726 7.62002L69.4266 2.27945C69.2403 1.90685 68.7435 1.90685 68.5572 2.27945L66.0111 7.65107L60.4221 8.48942C60.0184 8.55152 59.8632 9.07937 60.1737 9.35882L64.2412 13.5505L63.2787 19.419C63.2166 19.8226 63.6202 20.1642 63.9928 19.9158L69.054 17.1523L74.084 19.9158C74.4256 20.1021 74.8603 19.7916 74.7671 19.419L73.8046 13.5505L77.8721 9.35882C78.1205 9.07937 77.9963 8.55152 77.5927 8.48942Z" fill="#52503B"/>
</g>
<g clip-path="url(#clip2_1_217)">
<path d="M57.5927 8.48942L51.9726 7.62002L49.4266 2.27945C49.2403 1.90685 48.7435 1.90685 48.5572 2.27945L46.0111 7.65107L40.4221 8.48942C40.0184 8.55152 39.8632 9.07937 40.1737 9.35882L44.2412 13.5505L43.2787 19.419C43.2166 19.8226 43.6202 20.1642 43.9928 19.9158L49.054 17.1523L54.084 19.9158C54.4256 20.1021 54.8603 19.7916 54.7671 19.419L53.8046 13.5505L57.8721 9.35882C58.1205 9.07937 57.9963 8.55152 57.5927 8.48942Z" fill="#52503B"/>
</g>
<g clip-path="url(#clip3_1_217)">
<path d="M17.5927 8.48942L11.9726 7.62002L9.42655 2.27945C9.24025 1.90685 8.74346 1.90685 8.55716 2.27945L6.01107 7.65107L0.422094 8.48942C0.0184458 8.55152 -0.136803 9.07937 0.173695 9.35882L4.24123 13.5505L3.27868 19.419C3.21658 19.8226 3.62023 20.1642 3.99283 19.9158L9.05395 17.1523L14.084 19.9158C14.4256 20.1021 14.8603 19.7916 14.7671 19.419L13.8046 13.5505L17.8721 9.35882C18.1205 9.07937 17.9963 8.55152 17.5927 8.48942Z" fill="#52503B"/>
</g>
<g clip-path="url(#clip4_1_217)">
<path d="M97.9322 8.78C97.8122 8.42 97.5122 8.15 97.1522 8.09L92.1422 7.31L89.8922 2.57C89.7122 2.21 89.3822 2 88.9922 2C88.6022 2 88.2722 2.21 88.1222 2.57L85.8722 7.34L80.8322 8.15C80.4722 8.21 80.1722 8.48 80.0522 8.84C79.9322 9.2 80.0222 9.62 80.2922 9.89L83.9222 13.61L83.0822 18.8C83.0222 19.19 83.1722 19.58 83.5022 19.82C83.6822 19.94 83.8622 20 84.0422 20C84.1922 20 84.3722 19.97 84.4922 19.88L88.9922 17.42L93.4622 19.85C93.7922 20.03 94.1822 20 94.4822 19.79C94.8122 19.55 94.9622 19.16 94.9022 18.77L94.0622 13.55L97.6922 9.83C97.9622 9.56 98.0522 9.14 97.9322 8.78ZM97.2422 9.41L93.6422 13.13C93.5222 13.25 93.4622 13.46 93.4922 13.64L94.3322 18.86C94.3622 19.07 94.2722 19.22 94.1522 19.28C94.0922 19.31 93.9422 19.4 93.7622 19.31L89.2622 16.88C89.0822 16.79 88.9022 16.79 88.7222 16.88L84.2222 19.34C84.0422 19.43 83.8922 19.37 83.8322 19.31C83.7422 19.25 83.6222 19.07 83.6522 18.89L84.5222 13.7C84.5522 13.52 84.4922 13.31 84.3722 13.19L80.7422 9.47C80.5922 9.32 80.5922 9.14 80.6222 9.02C80.6822 8.87 80.7722 8.78 80.9222 8.75L85.9622 7.94C86.1422 7.91 86.3222 7.79 86.3822 7.61L88.6322 2.84C88.7222 2.69 88.8422 2.6 88.9922 2.6C89.1422 2.6 89.2622 2.69 89.3222 2.84L91.5722 7.61C91.6622 7.79 91.8122 7.91 91.9922 7.94L97.0022 8.72C97.1522 8.75 97.2722 8.84 97.3022 8.99C97.3922 9.08 97.3922 9.29 97.2422 9.41Z" fill="#52503B"/>
</g>
<defs>
<clipPath id="clip0_1_217">
<rect width="18" height="18" fill="white" transform="translate(20 2)"/>
</clipPath>
<clipPath id="clip1_1_217">
<rect width="18" height="18" fill="white" transform="translate(60 2)"/>
</clipPath>
<clipPath id="clip2_1_217">
<rect width="18" height="18" fill="white" transform="translate(40 2)"/>
</clipPath>
<clipPath id="clip3_1_217">
<rect width="18" height="18" fill="white" transform="translate(0 2)"/>
</clipPath>
<clipPath id="clip4_1_217">
<rect width="18" height="18" fill="white" transform="translate(80 2)"/>
</clipPath>
</defs>
</svg>
