<svg width="522" height="21" viewBox="0 0 522 21" fill="none" xmlns="http://www.w3.org/2000/svg">
<g clip-path="url(#clip0_1_193)">
<path d="M37.5927 8.48942L31.9726 7.62002L29.4266 2.27945C29.2403 1.90685 28.7435 1.90685 28.5572 2.27945L26.0111 7.65107L20.4221 8.48942C20.0184 8.55152 19.8632 9.07937 20.1737 9.35882L24.2412 13.5505L23.2787 19.419C23.2166 19.8226 23.6202 20.1642 23.9928 19.9158L29.054 17.1523L34.084 19.9158C34.4256 20.1021 34.8603 19.7916 34.7671 19.419L33.8046 13.5505L37.8721 9.35882C38.1205 9.07937 37.9963 8.55152 37.5927 8.48942Z" fill="#52503B"/>
</g>
<g clip-path="url(#clip1_1_193)">
<path d="M77.5927 8.48942L71.9726 7.62002L69.4266 2.27945C69.2403 1.90685 68.7435 1.90685 68.5572 2.27945L66.0111 7.65107L60.4221 8.48942C60.0184 8.55152 59.8632 9.07937 60.1737 9.35882L64.2412 13.5505L63.2787 19.419C63.2166 19.8226 63.6202 20.1642 63.9928 19.9158L69.054 17.1523L74.084 19.9158C74.4256 20.1021 74.8603 19.7916 74.7671 19.419L73.8046 13.5505L77.8721 9.35882C78.1205 9.07937 77.9963 8.55152 77.5927 8.48942Z" fill="#52503B"/>
</g>
<g clip-path="url(#clip2_1_193)">
<path d="M57.5927 8.48942L51.9726 7.62002L49.4266 2.27945C49.2403 1.90685 48.7435 1.90685 48.5572 2.27945L46.0111 7.65107L40.4221 8.48942C40.0184 8.55152 39.8632 9.07937 40.1737 9.35882L44.2412 13.5505L43.2787 19.419C43.2166 19.8226 43.6202 20.1642 43.9928 19.9158L49.054 17.1523L54.084 19.9158C54.4256 20.1021 54.8603 19.7916 54.7671 19.419L53.8046 13.5505L57.8721 9.35882C58.1205 9.07937 57.9963 8.55152 57.5927 8.48942Z" fill="#52503B"/>
</g>
<g clip-path="url(#clip3_1_193)">
<path d="M17.5927 8.48942L11.9726 7.62002L9.42655 2.27945C9.24025 1.90685 8.74346 1.90685 8.55716 2.27945L6.01107 7.65107L0.422094 8.48942C0.0184458 8.55152 -0.136803 9.07937 0.173695 9.35882L4.24123 13.5505L3.27868 19.419C3.21658 19.8226 3.62023 20.1642 3.99283 19.9158L9.05395 17.1523L14.084 19.9158C14.4256 20.1021 14.8603 19.7916 14.7671 19.419L13.8046 13.5505L17.8721 9.35882C18.1205 9.07937 17.9963 8.55152 17.5927 8.48942Z" fill="#52503B"/>
</g>
<g clip-path="url(#clip4_1_193)">
<path d="M97.5927 8.48942L91.9726 7.62002L89.4266 2.27945C89.2403 1.90685 88.7435 1.90685 88.5572 2.27945L86.0111 7.65107L80.4221 8.48942C80.0184 8.55152 79.8632 9.07937 80.1737 9.35882L84.2412 13.5505L83.2787 19.419C83.2166 19.8226 83.6202 20.1642 83.9928 19.9158L89.054 17.1523L94.084 19.9158C94.4256 20.1021 94.8603 19.7916 94.7671 19.419L93.8046 13.5505L97.8721 9.35882C98.1205 9.07937 97.9963 8.55152 97.5927 8.48942Z" fill="#52503B"/>
</g>
<defs>
<clipPath id="clip0_1_193">
<rect width="18" height="18" fill="white" transform="translate(20 2)"/>
</clipPath>
<clipPath id="clip1_1_193">
<rect width="18" height="18" fill="white" transform="translate(60 2)"/>
</clipPath>
<clipPath id="clip2_1_193">
<rect width="18" height="18" fill="white" transform="translate(40 2)"/>
</clipPath>
<clipPath id="clip3_1_193">
<rect width="18" height="18" fill="white" transform="translate(0 2)"/>
</clipPath>
<clipPath id="clip4_1_193">
<rect width="18" height="18" fill="white" transform="translate(80 2)"/>
</clipPath>
</defs>
</svg>
